<svg width="448" height="256" viewBox="0 0 448 256" fill="none" xmlns="http://www.w3.org/2000/svg">
<path d="M11.0156 4.34375V47H5.36133V4.34375H11.0156ZM26.4984 22.0684V47H21.0785V15.3008H26.2055L26.4984 22.0684ZM25.2094 29.9492L22.9535 29.8613C22.973 27.6934 23.2953 25.6914 23.9203 23.8555C24.5453 22 25.4242 20.3887 26.557 19.0215C27.6898 17.6543 29.0375 16.5996 30.6 15.8574C32.182 15.0957 33.9301 14.7148 35.8441 14.7148C37.4066 14.7148 38.8129 14.9297 40.0629 15.3594C41.3129 15.7695 42.3773 16.4336 43.2563 17.3516C44.1547 18.2695 44.8383 19.4609 45.307 20.9258C45.7758 22.3711 46.0102 24.1387 46.0102 26.2285V47H40.5609V26.1699C40.5609 24.5098 40.3168 23.1816 39.8285 22.1855C39.3402 21.1699 38.6273 20.4375 37.6898 19.9883C36.7523 19.5195 35.6 19.2852 34.2328 19.2852C32.8852 19.2852 31.6547 19.5684 30.5414 20.1348C29.4477 20.7012 28.5004 21.4824 27.6996 22.4785C26.9184 23.4746 26.3031 24.6172 25.8539 25.9062C25.4242 27.1758 25.2094 28.5234 25.2094 29.9492ZM66.1219 26.6387V31.0918H51.825V26.6387H66.1219ZM84.7102 43.1328C85.9992 43.1328 87.1906 42.8691 88.2844 42.3418C89.3781 41.8145 90.2766 41.0918 90.9797 40.1738C91.6828 39.2363 92.0832 38.1719 92.1809 36.9805H97.3371C97.2395 38.8555 96.6047 40.6035 95.4328 42.2246C94.2805 43.8262 92.7668 45.125 90.8918 46.1211C89.0168 47.0977 86.9563 47.5859 84.7102 47.5859C82.3273 47.5859 80.2473 47.166 78.4699 46.3262C76.7121 45.4863 75.2473 44.334 74.0754 42.8691C72.923 41.4043 72.0539 39.7246 71.468 37.8301C70.9016 35.916 70.6184 33.8945 70.6184 31.7656V30.5352C70.6184 28.4062 70.9016 26.3945 71.468 24.5C72.0539 22.5859 72.923 20.8965 74.0754 19.4316C75.2473 17.9668 76.7121 16.8145 78.4699 15.9746C80.2473 15.1348 82.3273 14.7148 84.7102 14.7148C87.1906 14.7148 89.3586 15.2227 91.2141 16.2383C93.0695 17.2344 94.5246 18.6016 95.5793 20.3398C96.6535 22.0586 97.2395 24.0117 97.3371 26.1992H92.1809C92.0832 24.8906 91.7121 23.709 91.0676 22.6543C90.4426 21.5996 89.5832 20.7598 88.4895 20.1348C87.4152 19.4902 86.1555 19.168 84.7102 19.168C83.05 19.168 81.6535 19.5 80.5207 20.1641C79.4074 20.8086 78.5188 21.6875 77.8547 22.8008C77.2102 23.8945 76.7414 25.1152 76.4484 26.4629C76.175 27.791 76.0383 29.1484 76.0383 30.5352V31.7656C76.0383 33.1523 76.175 34.5195 76.4484 35.8672C76.7219 37.2148 77.1809 38.4355 77.8254 39.5293C78.4895 40.623 79.3781 41.502 80.4914 42.166C81.6242 42.8105 83.0305 43.1328 84.7102 43.1328ZM102.595 31.502V30.8281C102.595 28.543 102.927 26.4238 103.591 24.4707C104.255 22.498 105.213 20.7891 106.463 19.3438C107.713 17.8789 109.226 16.7461 111.004 15.9453C112.781 15.125 114.773 14.7148 116.98 14.7148C119.207 14.7148 121.209 15.125 122.986 15.9453C124.783 16.7461 126.306 17.8789 127.556 19.3438C128.826 20.7891 129.793 22.498 130.457 24.4707C131.121 26.4238 131.453 28.543 131.453 30.8281V31.502C131.453 33.7871 131.121 35.9062 130.457 37.8594C129.793 39.8125 128.826 41.5215 127.556 42.9863C126.306 44.4316 124.793 45.5645 123.015 46.3848C121.257 47.1855 119.265 47.5859 117.039 47.5859C114.812 47.5859 112.81 47.1855 111.033 46.3848C109.255 45.5645 107.732 44.4316 106.463 42.9863C105.213 41.5215 104.255 39.8125 103.591 37.8594C102.927 35.9062 102.595 33.7871 102.595 31.502ZM108.015 30.8281V31.502C108.015 33.084 108.201 34.5781 108.572 35.9844C108.943 37.3711 109.5 38.6016 110.242 39.6758C111.004 40.75 111.951 41.5996 113.084 42.2246C114.216 42.8301 115.535 43.1328 117.039 43.1328C118.523 43.1328 119.822 42.8301 120.935 42.2246C122.068 41.5996 123.005 40.75 123.748 39.6758C124.49 38.6016 125.046 37.3711 125.418 35.9844C125.808 34.5781 126.004 33.084 126.004 31.502V30.8281C126.004 29.2656 125.808 27.791 125.418 26.4043C125.046 24.998 124.48 23.7578 123.718 22.6836C122.976 21.5898 122.039 20.7305 120.906 20.1055C119.793 19.4805 118.484 19.168 116.98 19.168C115.496 19.168 114.187 19.4805 113.054 20.1055C111.941 20.7305 111.004 21.5898 110.242 22.6836C109.5 23.7578 108.943 24.998 108.572 26.4043C108.201 27.791 108.015 29.2656 108.015 30.8281ZM144.27 22.0684V47H138.85V15.3008H143.977L144.27 22.0684ZM142.98 29.9492L140.725 29.8613C140.744 27.6934 141.066 25.6914 141.691 23.8555C142.316 22 143.195 20.3887 144.328 19.0215C145.461 17.6543 146.809 16.5996 148.371 15.8574C149.953 15.0957 151.701 14.7148 153.615 14.7148C155.178 14.7148 156.584 14.9297 157.834 15.3594C159.084 15.7695 160.148 16.4336 161.027 17.3516C161.926 18.2695 162.609 19.4609 163.078 20.9258C163.547 22.3711 163.781 24.1387 163.781 26.2285V47H158.332V26.1699C158.332 24.5098 158.088 23.1816 157.6 22.1855C157.111 21.1699 156.398 20.4375 155.461 19.9883C154.523 19.5195 153.371 19.2852 152.004 19.2852C150.656 19.2852 149.426 19.5684 148.312 20.1348C147.219 20.7012 146.271 21.4824 145.471 22.4785C144.689 23.4746 144.074 24.6172 143.625 25.9062C143.195 27.1758 142.98 28.5234 142.98 29.9492ZM185.885 15.3008V19.4609H168.746V15.3008H185.885ZM174.547 7.5957H179.967V39.1484C179.967 40.2227 180.133 41.0332 180.465 41.5801C180.797 42.127 181.227 42.4883 181.754 42.6641C182.282 42.8398 182.848 42.9277 183.454 42.9277C183.903 42.9277 184.371 42.8887 184.86 42.8105C185.368 42.7129 185.748 42.6348 186.002 42.5762L186.032 47C185.602 47.1367 185.036 47.2637 184.332 47.3809C183.649 47.5176 182.819 47.5859 181.842 47.5859C180.514 47.5859 179.293 47.3223 178.18 46.7949C177.067 46.2676 176.178 45.3887 175.514 44.1582C174.87 42.9082 174.547 41.2285 174.547 39.1191V7.5957ZM205.997 47.5859C203.79 47.5859 201.788 47.2148 199.991 46.4727C198.214 45.7109 196.68 44.6465 195.391 43.2793C194.122 41.9121 193.145 40.291 192.462 38.416C191.778 36.541 191.436 34.4902 191.436 32.2637V31.0332C191.436 28.4551 191.817 26.1602 192.579 24.1484C193.341 22.1172 194.376 20.3984 195.684 18.9922C196.993 17.5859 198.477 16.5215 200.137 15.7988C201.798 15.0762 203.516 14.7148 205.294 14.7148C207.559 14.7148 209.512 15.1055 211.153 15.8867C212.813 16.668 214.171 17.7617 215.225 19.168C216.28 20.5547 217.061 22.1953 217.569 24.0898C218.077 25.9648 218.331 28.0156 218.331 30.2422V32.6738H194.659V28.25H212.911V27.8398C212.833 26.4336 212.54 25.0664 212.032 23.7383C211.544 22.4102 210.762 21.3164 209.688 20.457C208.614 19.5977 207.149 19.168 205.294 19.168C204.063 19.168 202.93 19.4316 201.895 19.959C200.86 20.4668 199.971 21.2285 199.229 22.2441C198.487 23.2598 197.911 24.5 197.501 25.9648C197.091 27.4297 196.886 29.1191 196.886 31.0332V32.2637C196.886 33.7676 197.091 35.1836 197.501 36.5117C197.93 37.8203 198.546 38.9727 199.346 39.9688C200.167 40.9648 201.153 41.7461 202.305 42.3125C203.477 42.8789 204.805 43.1621 206.29 43.1621C208.204 43.1621 209.825 42.7715 211.153 41.9902C212.481 41.209 213.643 40.1641 214.639 38.8555L217.921 41.4629C217.237 42.498 216.368 43.4844 215.313 44.4219C214.259 45.3594 212.96 46.1211 211.417 46.707C209.893 47.293 208.087 47.5859 205.997 47.5859ZM228.921 15.3008L235.864 26.8438L242.896 15.3008H249.253L238.882 30.9453L249.575 47H243.306L235.982 35.1055L228.657 47H222.359L233.023 30.9453L222.681 15.3008H228.921ZM268.896 15.3008V19.4609H251.757V15.3008H268.896ZM257.558 7.5957H262.978V39.1484C262.978 40.2227 263.144 41.0332 263.476 41.5801C263.808 42.127 264.238 42.4883 264.765 42.6641C265.293 42.8398 265.859 42.9277 266.464 42.9277C266.914 42.9277 267.382 42.8887 267.871 42.8105C268.379 42.7129 268.759 42.6348 269.013 42.5762L269.043 47C268.613 47.1367 268.046 47.2637 267.343 47.3809C266.66 47.5176 265.83 47.5859 264.853 47.5859C263.525 47.5859 262.304 47.3223 261.191 46.7949C260.078 46.2676 259.189 45.3887 258.525 44.1582C257.88 42.9082 257.558 41.2285 257.558 39.1191V7.5957ZM310.731 39.6758V15.3008H316.18V47H310.995L310.731 39.6758ZM311.756 32.9961L314.012 32.9375C314.012 35.0469 313.788 37 313.338 38.7969C312.909 40.5742 312.205 42.1172 311.229 43.4258C310.252 44.7344 308.973 45.7598 307.391 46.502C305.809 47.2246 303.885 47.5859 301.62 47.5859C300.077 47.5859 298.661 47.3613 297.371 46.9121C296.102 46.4629 295.008 45.7695 294.09 44.832C293.172 43.8945 292.459 42.6738 291.952 41.1699C291.463 39.666 291.219 37.8594 291.219 35.75V15.3008H296.639V35.8086C296.639 37.2344 296.795 38.416 297.108 39.3535C297.44 40.2715 297.879 41.0039 298.426 41.5508C298.993 42.0781 299.618 42.4492 300.301 42.6641C301.004 42.8789 301.727 42.9863 302.469 42.9863C304.774 42.9863 306.6 42.5469 307.948 41.668C309.295 40.7695 310.262 39.5684 310.848 38.0645C311.454 36.541 311.756 34.8516 311.756 32.9961ZM343.499 38.5918C343.499 37.8105 343.323 37.0879 342.971 36.4238C342.639 35.7402 341.946 35.125 340.891 34.5781C339.856 34.0117 338.294 33.5234 336.204 33.1133C334.446 32.7422 332.854 32.3027 331.429 31.7949C330.022 31.2871 328.821 30.6719 327.825 29.9492C326.848 29.2266 326.096 28.377 325.569 27.4004C325.042 26.4238 324.778 25.2812 324.778 23.9727C324.778 22.7227 325.052 21.541 325.598 20.4277C326.165 19.3145 326.956 18.3281 327.971 17.4688C329.007 16.6094 330.247 15.9355 331.692 15.4473C333.138 14.959 334.749 14.7148 336.526 14.7148C339.065 14.7148 341.233 15.1641 343.03 16.0625C344.827 16.9609 346.204 18.1621 347.161 19.666C348.118 21.1504 348.596 22.8008 348.596 24.6172H343.177C343.177 23.7383 342.913 22.8887 342.386 22.0684C341.878 21.2285 341.126 20.5352 340.13 19.9883C339.153 19.4414 337.952 19.168 336.526 19.168C335.022 19.168 333.802 19.4023 332.864 19.8711C331.946 20.3203 331.272 20.8965 330.843 21.5996C330.432 22.3027 330.227 23.0449 330.227 23.8262C330.227 24.4121 330.325 24.9395 330.52 25.4082C330.735 25.8574 331.106 26.2773 331.634 26.668C332.161 27.0391 332.903 27.3906 333.86 27.7227C334.817 28.0547 336.038 28.3867 337.522 28.7188C340.12 29.3047 342.259 30.0078 343.938 30.8281C345.618 31.6484 346.868 32.6543 347.688 33.8457C348.509 35.0371 348.919 36.4824 348.919 38.1816C348.919 39.5684 348.626 40.8379 348.04 41.9902C347.473 43.1426 346.643 44.1387 345.55 44.9785C344.475 45.7988 343.186 46.4434 341.682 46.9121C340.198 47.3613 338.528 47.5859 336.673 47.5859C333.88 47.5859 331.516 47.0879 329.583 46.0918C327.649 45.0957 326.184 43.8066 325.188 42.2246C324.192 40.6426 323.694 38.9727 323.694 37.2148H329.143C329.221 38.6992 329.651 39.8809 330.432 40.7598C331.214 41.6191 332.171 42.2344 333.304 42.6055C334.436 42.957 335.559 43.1328 336.673 43.1328C338.157 43.1328 339.397 42.9375 340.393 42.5469C341.409 42.1562 342.18 41.6191 342.708 40.9355C343.235 40.252 343.499 39.4707 343.499 38.5918ZM369.792 47.5859C367.585 47.5859 365.583 47.2148 363.786 46.4727C362.009 45.7109 360.476 44.6465 359.187 43.2793C357.917 41.9121 356.941 40.291 356.257 38.416C355.573 36.541 355.232 34.4902 355.232 32.2637V31.0332C355.232 28.4551 355.612 26.1602 356.374 24.1484C357.136 22.1172 358.171 20.3984 359.48 18.9922C360.788 17.5859 362.273 16.5215 363.933 15.7988C365.593 15.0762 367.312 14.7148 369.089 14.7148C371.355 14.7148 373.308 15.1055 374.948 15.8867C376.609 16.668 377.966 17.7617 379.021 19.168C380.075 20.5547 380.857 22.1953 381.364 24.0898C381.872 25.9648 382.126 28.0156 382.126 30.2422V32.6738H358.454V28.25H376.706V27.8398C376.628 26.4336 376.335 25.0664 375.827 23.7383C375.339 22.4102 374.558 21.3164 373.484 20.457C372.409 19.5977 370.945 19.168 369.089 19.168C367.859 19.168 366.726 19.4316 365.691 19.959C364.655 20.4668 363.767 21.2285 363.025 22.2441C362.282 23.2598 361.706 24.5 361.296 25.9648C360.886 27.4297 360.681 29.1191 360.681 31.0332V32.2637C360.681 33.7676 360.886 35.1836 361.296 36.5117C361.726 37.8203 362.341 38.9727 363.142 39.9688C363.962 40.9648 364.948 41.7461 366.101 42.3125C367.273 42.8789 368.601 43.1621 370.085 43.1621C371.999 43.1621 373.62 42.7715 374.948 41.9902C376.277 41.209 377.439 40.1641 378.435 38.8555L381.716 41.4629C381.032 42.498 380.163 43.4844 379.109 44.4219C378.054 45.3594 376.755 46.1211 375.212 46.707C373.689 47.293 371.882 47.5859 369.792 47.5859ZM394.474 20.2812V47H389.054V15.3008H394.328L394.474 20.2812ZM404.377 15.125L404.347 20.1641C403.898 20.0664 403.468 20.0078 403.058 19.9883C402.668 19.9492 402.218 19.9297 401.711 19.9297C400.461 19.9297 399.357 20.125 398.4 20.5156C397.443 20.9062 396.632 21.4531 395.968 22.1562C395.304 22.8594 394.777 23.6992 394.386 24.6758C394.015 25.6328 393.771 26.6875 393.654 27.8398L392.13 28.7188C392.13 26.8047 392.316 25.0078 392.687 23.3281C393.078 21.6484 393.673 20.1641 394.474 18.875C395.275 17.5664 396.291 16.5508 397.521 15.8281C398.771 15.0859 400.255 14.7148 401.974 14.7148C402.365 14.7148 402.814 14.7637 403.322 14.8613C403.83 14.9395 404.181 15.0273 404.377 15.125ZM9.55078 84.2812V111H4.13086V79.3008H9.4043L9.55078 84.2812ZM19.4531 79.125L19.4238 84.1641C18.9746 84.0664 18.5449 84.0078 18.1348 83.9883C17.7441 83.9492 17.2949 83.9297 16.7871 83.9297C15.5371 83.9297 14.4336 84.125 13.4766 84.5156C12.5195 84.9062 11.709 85.4531 11.0449 86.1562C10.3809 86.8594 9.85352 87.6992 9.46289 88.6758C9.0918 89.6328 8.84766 90.6875 8.73047 91.8398L7.20703 92.7188C7.20703 90.8047 7.39258 89.0078 7.76367 87.3281C8.1543 85.6484 8.75 84.1641 9.55078 82.875C10.3516 81.5664 11.3672 80.5508 12.5977 79.8281C13.8477 79.0859 15.332 78.7148 17.0508 78.7148C17.4414 78.7148 17.8906 78.7637 18.3984 78.8613C18.9062 78.9395 19.2578 79.0273 19.4531 79.125ZM37.6313 111.586C35.4242 111.586 33.4223 111.215 31.6254 110.473C29.848 109.711 28.3148 108.646 27.0258 107.279C25.7563 105.912 24.7797 104.291 24.0961 102.416C23.4125 100.541 23.0707 98.4902 23.0707 96.2637V95.0332C23.0707 92.4551 23.4516 90.1602 24.2133 88.1484C24.975 86.1172 26.0102 84.3984 27.3188 82.9922C28.6273 81.5859 30.1117 80.5215 31.7719 79.7988C33.432 79.0762 35.1508 78.7148 36.9281 78.7148C39.1938 78.7148 41.1469 79.1055 42.7875 79.8867C44.4477 80.668 45.8051 81.7617 46.8598 83.168C47.9145 84.5547 48.6957 86.1953 49.2035 88.0898C49.7113 89.9648 49.9652 92.0156 49.9652 94.2422V96.6738H26.2934V92.25H44.5453V91.8398C44.4672 90.4336 44.1742 89.0664 43.6664 87.7383C43.1781 86.4102 42.3969 85.3164 41.3227 84.457C40.2484 83.5977 38.7836 83.168 36.9281 83.168C35.6977 83.168 34.5648 83.4316 33.5297 83.959C32.4945 84.4668 31.6059 85.2285 30.8637 86.2441C30.1215 87.2598 29.5453 88.5 29.1352 89.9648C28.725 91.4297 28.5199 93.1191 28.5199 95.0332V96.2637C28.5199 97.7676 28.725 99.1836 29.1352 100.512C29.5648 101.82 30.1801 102.973 30.9809 103.969C31.8012 104.965 32.7875 105.746 33.9398 106.312C35.1117 106.879 36.4398 107.162 37.9242 107.162C39.8383 107.162 41.4594 106.771 42.7875 105.99C44.1156 105.209 45.2777 104.164 46.2738 102.855L49.5551 105.463C48.8715 106.498 48.0023 107.484 46.9477 108.422C45.893 109.359 44.5941 110.121 43.0512 110.707C41.5277 111.293 39.7211 111.586 37.6313 111.586ZM75.3504 102.592C75.3504 101.811 75.1746 101.088 74.823 100.424C74.491 99.7402 73.7977 99.125 72.743 98.5781C71.7078 98.0117 70.1453 97.5234 68.0555 97.1133C66.2977 96.7422 64.7059 96.3027 63.2801 95.7949C61.8738 95.2871 60.6727 94.6719 59.6766 93.9492C58.7 93.2266 57.948 92.377 57.4207 91.4004C56.8934 90.4238 56.6297 89.2812 56.6297 87.9727C56.6297 86.7227 56.9031 85.541 57.45 84.4277C58.0164 83.3145 58.8074 82.3281 59.823 81.4688C60.8582 80.6094 62.0984 79.9355 63.5438 79.4473C64.9891 78.959 66.6004 78.7148 68.3777 78.7148C70.9168 78.7148 73.0848 79.1641 74.8816 80.0625C76.6785 80.9609 78.0555 82.1621 79.0125 83.666C79.9695 85.1504 80.448 86.8008 80.448 88.6172H75.0281C75.0281 87.7383 74.7645 86.8887 74.2371 86.0684C73.7293 85.2285 72.9773 84.5352 71.9813 83.9883C71.0047 83.4414 69.8035 83.168 68.3777 83.168C66.8738 83.168 65.6531 83.4023 64.7156 83.8711C63.7977 84.3203 63.1238 84.8965 62.6941 85.5996C62.284 86.3027 62.0789 87.0449 62.0789 87.8262C62.0789 88.4121 62.1766 88.9395 62.3719 89.4082C62.5867 89.8574 62.9578 90.2773 63.4852 90.668C64.0125 91.0391 64.7547 91.3906 65.7117 91.7227C66.6688 92.0547 67.8895 92.3867 69.3738 92.7188C71.9715 93.3047 74.1102 94.0078 75.7898 94.8281C77.4695 95.6484 78.7195 96.6543 79.5398 97.8457C80.3602 99.0371 80.7703 100.482 80.7703 102.182C80.7703 103.568 80.4773 104.838 79.8914 105.99C79.325 107.143 78.4949 108.139 77.4012 108.979C76.327 109.799 75.0379 110.443 73.534 110.912C72.0496 111.361 70.3797 111.586 68.5242 111.586C65.7313 111.586 63.368 111.088 61.4344 110.092C59.5008 109.096 58.0359 107.807 57.0398 106.225C56.0438 104.643 55.5457 102.973 55.5457 101.215H60.9949C61.073 102.699 61.5027 103.881 62.284 104.76C63.0652 105.619 64.0223 106.234 65.1551 106.605C66.2879 106.957 67.4109 107.133 68.5242 107.133C70.0086 107.133 71.2488 106.938 72.2449 106.547C73.2605 106.156 74.032 105.619 74.5594 104.936C75.0867 104.252 75.3504 103.471 75.3504 102.592ZM101.644 111.586C99.4367 111.586 97.4348 111.215 95.6379 110.473C93.8605 109.711 92.3273 108.646 91.0383 107.279C89.7688 105.912 88.7922 104.291 88.1086 102.416C87.425 100.541 87.0832 98.4902 87.0832 96.2637V95.0332C87.0832 92.4551 87.4641 90.1602 88.2258 88.1484C88.9875 86.1172 90.0227 84.3984 91.3313 82.9922C92.6398 81.5859 94.1242 80.5215 95.7844 79.7988C97.4445 79.0762 99.1633 78.7148 100.941 78.7148C103.206 78.7148 105.159 79.1055 106.8 79.8867C108.46 80.668 109.818 81.7617 110.872 83.168C111.927 84.5547 112.708 86.1953 113.216 88.0898C113.724 89.9648 113.978 92.0156 113.978 94.2422V96.6738H90.3059V92.25H108.558V91.8398C108.48 90.4336 108.187 89.0664 107.679 87.7383C107.191 86.4102 106.409 85.3164 105.335 84.457C104.261 83.5977 102.796 83.168 100.941 83.168C99.7102 83.168 98.5773 83.4316 97.5422 83.959C96.507 84.4668 95.6184 85.2285 94.8762 86.2441C94.134 87.2598 93.5578 88.5 93.1477 89.9648C92.7375 91.4297 92.5324 93.1191 92.5324 95.0332V96.2637C92.5324 97.7676 92.7375 99.1836 93.1477 100.512C93.5773 101.82 94.1926 102.973 94.9934 103.969C95.8137 104.965 96.8 105.746 97.9523 106.312C99.1242 106.879 100.452 107.162 101.937 107.162C103.851 107.162 105.472 106.771 106.8 105.99C108.128 105.209 109.29 104.164 110.286 102.855L113.568 105.463C112.884 106.498 112.015 107.484 110.96 108.422C109.905 109.359 108.607 110.121 107.064 110.707C105.54 111.293 103.734 111.586 101.644 111.586ZM139.597 105.58V89.2617C139.597 88.0117 139.343 86.9277 138.836 86.0098C138.347 85.0723 137.605 84.3496 136.609 83.8418C135.613 83.334 134.382 83.0801 132.918 83.0801C131.55 83.0801 130.349 83.3145 129.314 83.7832C128.298 84.252 127.498 84.8672 126.912 85.6289C126.345 86.3906 126.062 87.2109 126.062 88.0898H120.642C120.642 86.957 120.935 85.834 121.521 84.7207C122.107 83.6074 122.947 82.6016 124.041 81.7031C125.154 80.7852 126.482 80.0625 128.025 79.5352C129.588 78.9883 131.326 78.7148 133.24 78.7148C135.545 78.7148 137.576 79.1055 139.334 79.8867C141.111 80.668 142.498 81.8496 143.494 83.4316C144.509 84.9941 145.017 86.957 145.017 89.3203V104.086C145.017 105.141 145.105 106.264 145.281 107.455C145.476 108.646 145.759 109.672 146.13 110.531V111H140.476C140.203 110.375 139.988 109.545 139.832 108.51C139.675 107.455 139.597 106.479 139.597 105.58ZM140.535 91.7812L140.593 95.5898H135.115C133.572 95.5898 132.195 95.7168 130.984 95.9707C129.773 96.2051 128.757 96.5664 127.937 97.0547C127.117 97.543 126.492 98.1582 126.062 98.9004C125.632 99.623 125.418 100.473 125.418 101.449C125.418 102.445 125.642 103.354 126.091 104.174C126.541 104.994 127.214 105.648 128.113 106.137C129.031 106.605 130.154 106.84 131.482 106.84C133.142 106.84 134.607 106.488 135.877 105.785C137.146 105.082 138.152 104.223 138.894 103.207C139.656 102.191 140.066 101.205 140.125 100.248L142.439 102.855C142.302 103.676 141.931 104.584 141.326 105.58C140.72 106.576 139.91 107.533 138.894 108.451C137.898 109.35 136.707 110.102 135.32 110.707C133.953 111.293 132.41 111.586 130.691 111.586C128.543 111.586 126.658 111.166 125.037 110.326C123.435 109.486 122.185 108.363 121.287 106.957C120.408 105.531 119.968 103.939 119.968 102.182C119.968 100.482 120.3 98.9883 120.964 97.6992C121.629 96.3906 122.586 95.3066 123.836 94.4473C125.086 93.5684 126.589 92.9043 128.347 92.4551C130.105 92.0059 132.068 91.7812 134.236 91.7812H140.535ZM159.562 84.2812V111H154.143V79.3008H159.416L159.562 84.2812ZM169.465 79.125L169.436 84.1641C168.986 84.0664 168.557 84.0078 168.146 83.9883C167.756 83.9492 167.307 83.9297 166.799 83.9297C165.549 83.9297 164.445 84.125 163.488 84.5156C162.531 84.9062 161.721 85.4531 161.057 86.1562C160.393 86.8594 159.865 87.6992 159.475 88.6758C159.104 89.6328 158.859 90.6875 158.742 91.8398L157.219 92.7188C157.219 90.8047 157.404 89.0078 157.775 87.3281C158.166 85.6484 158.762 84.1641 159.562 82.875C160.363 81.5664 161.379 80.5508 162.609 79.8281C163.859 79.0859 165.344 78.7148 167.062 78.7148C167.453 78.7148 167.902 78.7637 168.41 78.8613C168.918 78.9395 169.27 79.0273 169.465 79.125ZM187.174 107.133C188.463 107.133 189.655 106.869 190.748 106.342C191.842 105.814 192.741 105.092 193.444 104.174C194.147 103.236 194.547 102.172 194.645 100.98H199.801C199.704 102.855 199.069 104.604 197.897 106.225C196.745 107.826 195.231 109.125 193.356 110.121C191.481 111.098 189.42 111.586 187.174 111.586C184.791 111.586 182.711 111.166 180.934 110.326C179.176 109.486 177.711 108.334 176.539 106.869C175.387 105.404 174.518 103.725 173.932 101.83C173.366 99.916 173.082 97.8945 173.082 95.7656V94.5352C173.082 92.4062 173.366 90.3945 173.932 88.5C174.518 86.5859 175.387 84.8965 176.539 83.4316C177.711 81.9668 179.176 80.8145 180.934 79.9746C182.711 79.1348 184.791 78.7148 187.174 78.7148C189.655 78.7148 191.823 79.2227 193.678 80.2383C195.534 81.2344 196.989 82.6016 198.043 84.3398C199.118 86.0586 199.704 88.0117 199.801 90.1992H194.645C194.547 88.8906 194.176 87.709 193.532 86.6543C192.907 85.5996 192.047 84.7598 190.954 84.1348C189.879 83.4902 188.62 83.168 187.174 83.168C185.514 83.168 184.118 83.5 182.985 84.1641C181.871 84.8086 180.983 85.6875 180.319 86.8008C179.674 87.8945 179.205 89.1152 178.913 90.4629C178.639 91.791 178.502 93.1484 178.502 94.5352V95.7656C178.502 97.1523 178.639 98.5195 178.913 99.8672C179.186 101.215 179.645 102.436 180.289 103.529C180.954 104.623 181.842 105.502 182.955 106.166C184.088 106.811 185.495 107.133 187.174 107.133ZM211.915 66V111H206.495V66H211.915ZM210.626 93.9492L208.37 93.8613C208.389 91.6934 208.712 89.6914 209.337 87.8555C209.962 86 210.841 84.3887 211.973 83.0215C213.106 81.6543 214.454 80.5996 216.016 79.8574C217.598 79.0957 219.346 78.7148 221.261 78.7148C222.823 78.7148 224.229 78.9297 225.479 79.3594C226.729 79.7695 227.794 80.4336 228.673 81.3516C229.571 82.2695 230.255 83.4609 230.723 84.9258C231.192 86.3711 231.427 88.1387 231.427 90.2285V111H225.977V90.1699C225.977 88.5098 225.733 87.1816 225.245 86.1855C224.757 85.1699 224.044 84.4375 223.106 83.9883C222.169 83.5195 221.016 83.2852 219.649 83.2852C218.302 83.2852 217.071 83.5684 215.958 84.1348C214.864 84.7012 213.917 85.4824 213.116 86.4785C212.335 87.4746 211.72 88.6172 211.27 89.9062C210.841 91.1758 210.626 92.5234 210.626 93.9492ZM268.896 79.3008V83.4609H251.757V79.3008H268.896ZM257.558 71.5957H262.978V103.148C262.978 104.223 263.144 105.033 263.476 105.58C263.808 106.127 264.238 106.488 264.765 106.664C265.293 106.84 265.859 106.928 266.464 106.928C266.914 106.928 267.382 106.889 267.871 106.811C268.379 106.713 268.759 106.635 269.013 106.576L269.043 111C268.613 111.137 268.046 111.264 267.343 111.381C266.66 111.518 265.83 111.586 264.853 111.586C263.525 111.586 262.304 111.322 261.191 110.795C260.078 110.268 259.189 109.389 258.525 108.158C257.88 106.908 257.558 105.229 257.558 103.119V71.5957ZM281.273 66V111H275.854V66H281.273ZM279.984 93.9492L277.729 93.8613C277.748 91.6934 278.07 89.6914 278.695 87.8555C279.32 86 280.199 84.3887 281.332 83.0215C282.465 81.6543 283.812 80.5996 285.375 79.8574C286.957 79.0957 288.705 78.7148 290.619 78.7148C292.182 78.7148 293.588 78.9297 294.838 79.3594C296.088 79.7695 297.152 80.4336 298.031 81.3516C298.93 82.2695 299.613 83.4609 300.082 84.9258C300.551 86.3711 300.785 88.1387 300.785 90.2285V111H295.336V90.1699C295.336 88.5098 295.092 87.1816 294.604 86.1855C294.115 85.1699 293.402 84.4375 292.465 83.9883C291.527 83.5195 290.375 83.2852 289.008 83.2852C287.66 83.2852 286.43 83.5684 285.316 84.1348C284.223 84.7012 283.275 85.4824 282.475 86.4785C281.693 87.4746 281.078 88.6172 280.629 89.9062C280.199 91.1758 279.984 92.5234 279.984 93.9492ZM328.192 105.58V89.2617C328.192 88.0117 327.938 86.9277 327.43 86.0098C326.942 85.0723 326.2 84.3496 325.204 83.8418C324.207 83.334 322.977 83.0801 321.512 83.0801C320.145 83.0801 318.944 83.3145 317.909 83.7832C316.893 84.252 316.092 84.8672 315.506 85.6289C314.94 86.3906 314.657 87.2109 314.657 88.0898H309.237C309.237 86.957 309.53 85.834 310.116 84.7207C310.702 83.6074 311.541 82.6016 312.635 81.7031C313.748 80.7852 315.077 80.0625 316.62 79.5352C318.182 78.9883 319.92 78.7148 321.834 78.7148C324.139 78.7148 326.17 79.1055 327.928 79.8867C329.705 80.668 331.092 81.8496 332.088 83.4316C333.104 84.9941 333.612 86.957 333.612 89.3203V104.086C333.612 105.141 333.7 106.264 333.875 107.455C334.071 108.646 334.354 109.672 334.725 110.531V111H329.071C328.797 110.375 328.582 109.545 328.426 108.51C328.27 107.455 328.192 106.479 328.192 105.58ZM329.129 91.7812L329.188 95.5898H323.709C322.166 95.5898 320.789 95.7168 319.579 95.9707C318.368 96.2051 317.352 96.5664 316.532 97.0547C315.711 97.543 315.086 98.1582 314.657 98.9004C314.227 99.623 314.012 100.473 314.012 101.449C314.012 102.445 314.237 103.354 314.686 104.174C315.135 104.994 315.809 105.648 316.707 106.137C317.625 106.605 318.748 106.84 320.077 106.84C321.737 106.84 323.202 106.488 324.471 105.785C325.741 105.082 326.746 104.223 327.489 103.207C328.25 102.191 328.661 101.205 328.719 100.248L331.034 102.855C330.897 103.676 330.526 104.584 329.92 105.58C329.315 106.576 328.504 107.533 327.489 108.451C326.493 109.35 325.301 110.102 323.914 110.707C322.547 111.293 321.004 111.586 319.286 111.586C317.137 111.586 315.252 111.166 313.631 110.326C312.03 109.486 310.78 108.363 309.881 106.957C309.002 105.531 308.563 103.939 308.563 102.182C308.563 100.482 308.895 98.9883 309.559 97.6992C310.223 96.3906 311.18 95.3066 312.43 94.4473C313.68 93.5684 315.184 92.9043 316.942 92.4551C318.7 92.0059 320.663 91.7812 322.83 91.7812H329.129ZM356.009 79.3008V83.4609H338.87V79.3008H356.009ZM344.671 71.5957H350.091V103.148C350.091 104.223 350.257 105.033 350.589 105.58C350.921 106.127 351.35 106.488 351.878 106.664C352.405 106.84 352.971 106.928 353.577 106.928C354.026 106.928 354.495 106.889 354.983 106.811C355.491 106.713 355.872 106.635 356.126 106.576L356.155 111C355.725 111.137 355.159 111.264 354.456 111.381C353.772 111.518 352.942 111.586 351.966 111.586C350.638 111.586 349.417 111.322 348.304 110.795C347.19 110.268 346.302 109.389 345.638 108.158C344.993 106.908 344.671 105.229 344.671 103.119V71.5957ZM366.277 66V69.2227L365.661 80.0039H361.882L361.911 69.7207V66H366.277ZM390.168 102.592C390.168 101.811 389.992 101.088 389.64 100.424C389.308 99.7402 388.615 99.125 387.56 98.5781C386.525 98.0117 384.962 97.5234 382.873 97.1133C381.115 96.7422 379.523 96.3027 378.097 95.7949C376.691 95.2871 375.49 94.6719 374.494 93.9492C373.517 93.2266 372.765 92.377 372.238 91.4004C371.711 90.4238 371.447 89.2812 371.447 87.9727C371.447 86.7227 371.72 85.541 372.267 84.4277C372.834 83.3145 373.625 82.3281 374.64 81.4688C375.675 80.6094 376.916 79.9355 378.361 79.4473C379.806 78.959 381.418 78.7148 383.195 78.7148C385.734 78.7148 387.902 79.1641 389.699 80.0625C391.496 80.9609 392.873 82.1621 393.83 83.666C394.787 85.1504 395.265 86.8008 395.265 88.6172H389.845C389.845 87.7383 389.582 86.8887 389.054 86.0684C388.546 85.2285 387.795 84.5352 386.798 83.9883C385.822 83.4414 384.621 83.168 383.195 83.168C381.691 83.168 380.47 83.4023 379.533 83.8711C378.615 84.3203 377.941 84.8965 377.511 85.5996C377.101 86.3027 376.896 87.0449 376.896 87.8262C376.896 88.4121 376.994 88.9395 377.189 89.4082C377.404 89.8574 377.775 90.2773 378.302 90.668C378.83 91.0391 379.572 91.3906 380.529 91.7227C381.486 92.0547 382.707 92.3867 384.191 92.7188C386.789 93.3047 388.927 94.0078 390.607 94.8281C392.287 95.6484 393.537 96.6543 394.357 97.8457C395.177 99.0371 395.587 100.482 395.587 102.182C395.587 103.568 395.295 104.838 394.709 105.99C394.142 107.143 393.312 108.139 392.218 108.979C391.144 109.799 389.855 110.443 388.351 110.912C386.867 111.361 385.197 111.586 383.341 111.586C380.548 111.586 378.185 111.088 376.252 110.092C374.318 109.096 372.853 107.807 371.857 106.225C370.861 104.643 370.363 102.973 370.363 101.215H375.812C375.89 102.699 376.32 103.881 377.101 104.76C377.882 105.619 378.839 106.234 379.972 106.605C381.105 106.957 382.228 107.133 383.341 107.133C384.826 107.133 386.066 106.938 387.062 106.547C388.078 106.156 388.849 105.619 389.377 104.936C389.904 104.252 390.168 103.471 390.168 102.592ZM12.2168 175H6.79688V139.961C6.79688 137.676 7.20703 135.752 8.02734 134.189C8.86719 132.607 10.0684 131.416 11.6309 130.615C13.1934 129.795 15.0488 129.385 17.1973 129.385C17.8223 129.385 18.4473 129.424 19.0723 129.502C19.7168 129.58 20.3418 129.697 20.9473 129.854L20.6543 134.277C20.2441 134.18 19.7754 134.111 19.248 134.072C18.7402 134.033 18.2324 134.014 17.7246 134.014C16.5723 134.014 15.5762 134.248 14.7363 134.717C13.916 135.166 13.291 135.83 12.8613 136.709C12.4316 137.588 12.2168 138.672 12.2168 139.961V175ZM18.9551 143.301V147.461H1.78711V143.301H18.9551ZM44.2816 169.58V153.262C44.2816 152.012 44.0277 150.928 43.5199 150.01C43.0316 149.072 42.2895 148.35 41.2934 147.842C40.2973 147.334 39.0668 147.08 37.602 147.08C36.2348 147.08 35.0336 147.314 33.9984 147.783C32.9828 148.252 32.182 148.867 31.5961 149.629C31.0297 150.391 30.7465 151.211 30.7465 152.09H25.3266C25.3266 150.957 25.6195 149.834 26.2055 148.721C26.7914 147.607 27.6313 146.602 28.725 145.703C29.8383 144.785 31.1664 144.062 32.7094 143.535C34.2719 142.988 36.0102 142.715 37.9242 142.715C40.2289 142.715 42.2602 143.105 44.018 143.887C45.7953 144.668 47.182 145.85 48.1781 147.432C49.1938 148.994 49.7016 150.957 49.7016 153.32V168.086C49.7016 169.141 49.7895 170.264 49.9652 171.455C50.1605 172.646 50.4438 173.672 50.8148 174.531V175H45.1605C44.8871 174.375 44.6723 173.545 44.516 172.51C44.3598 171.455 44.2816 170.479 44.2816 169.58ZM45.2191 155.781L45.2777 159.59H39.7992C38.2563 159.59 36.8793 159.717 35.6684 159.971C34.4574 160.205 33.4418 160.566 32.6215 161.055C31.8012 161.543 31.1762 162.158 30.7465 162.9C30.3168 163.623 30.102 164.473 30.102 165.449C30.102 166.445 30.3266 167.354 30.7758 168.174C31.225 168.994 31.8988 169.648 32.7973 170.137C33.7152 170.605 34.8383 170.84 36.1664 170.84C37.8266 170.84 39.2914 170.488 40.5609 169.785C41.8305 169.082 42.8363 168.223 43.5785 167.207C44.3402 166.191 44.7504 165.205 44.809 164.248L47.1234 166.855C46.9867 167.676 46.6156 168.584 46.0102 169.58C45.4047 170.576 44.5941 171.533 43.5785 172.451C42.5824 173.35 41.391 174.102 40.0043 174.707C38.6371 175.293 37.0941 175.586 35.3754 175.586C33.227 175.586 31.3422 175.166 29.7211 174.326C28.1195 173.486 26.8695 172.363 25.9711 170.957C25.0922 169.531 24.6527 167.939 24.6527 166.182C24.6527 164.482 24.9848 162.988 25.6488 161.699C26.3129 160.391 27.2699 159.307 28.5199 158.447C29.7699 157.568 31.2738 156.904 33.0316 156.455C34.7895 156.006 36.7523 155.781 38.9203 155.781H45.2191ZM77.284 166.592C77.284 165.811 77.1082 165.088 76.7566 164.424C76.4246 163.74 75.7313 163.125 74.6766 162.578C73.6414 162.012 72.0789 161.523 69.9891 161.113C68.2313 160.742 66.6395 160.303 65.2137 159.795C63.8074 159.287 62.6063 158.672 61.6102 157.949C60.6336 157.227 59.8816 156.377 59.3543 155.4C58.827 154.424 58.5633 153.281 58.5633 151.973C58.5633 150.723 58.8367 149.541 59.3836 148.428C59.95 147.314 60.741 146.328 61.7566 145.469C62.7918 144.609 64.032 143.936 65.4773 143.447C66.9227 142.959 68.534 142.715 70.3113 142.715C72.8504 142.715 75.0184 143.164 76.8152 144.062C78.6121 144.961 79.9891 146.162 80.9461 147.666C81.9031 149.15 82.3816 150.801 82.3816 152.617H76.9617C76.9617 151.738 76.698 150.889 76.1707 150.068C75.6629 149.229 74.9109 148.535 73.9148 147.988C72.9383 147.441 71.7371 147.168 70.3113 147.168C68.8074 147.168 67.5867 147.402 66.6492 147.871C65.7313 148.32 65.0574 148.896 64.6277 149.6C64.2176 150.303 64.0125 151.045 64.0125 151.826C64.0125 152.412 64.1102 152.939 64.3055 153.408C64.5203 153.857 64.8914 154.277 65.4188 154.668C65.9461 155.039 66.6883 155.391 67.6453 155.723C68.6023 156.055 69.823 156.387 71.3074 156.719C73.9051 157.305 76.0438 158.008 77.7234 158.828C79.4031 159.648 80.6531 160.654 81.4734 161.846C82.2938 163.037 82.7039 164.482 82.7039 166.182C82.7039 167.568 82.4109 168.838 81.825 169.99C81.2586 171.143 80.4285 172.139 79.3348 172.979C78.2605 173.799 76.9715 174.443 75.4676 174.912C73.9832 175.361 72.3133 175.586 70.4578 175.586C67.6648 175.586 65.3016 175.088 63.368 174.092C61.4344 173.096 59.9695 171.807 58.9734 170.225C57.9773 168.643 57.4793 166.973 57.4793 165.215H62.9285C63.0066 166.699 63.4363 167.881 64.2176 168.76C64.9988 169.619 65.9559 170.234 67.0887 170.605C68.2215 170.957 69.3445 171.133 70.4578 171.133C71.9422 171.133 73.1824 170.938 74.1785 170.547C75.1941 170.156 75.9656 169.619 76.493 168.936C77.0203 168.252 77.284 167.471 77.284 166.592ZM103.695 143.301V147.461H86.5559V143.301H103.695ZM92.3566 135.596H97.7766V167.148C97.7766 168.223 97.9426 169.033 98.2746 169.58C98.6066 170.127 99.0363 170.488 99.5637 170.664C100.091 170.84 100.657 170.928 101.263 170.928C101.712 170.928 102.181 170.889 102.669 170.811C103.177 170.713 103.558 170.635 103.812 170.576L103.841 175C103.411 175.137 102.845 175.264 102.142 175.381C101.458 175.518 100.628 175.586 99.6516 175.586C98.3234 175.586 97.1027 175.322 95.9895 174.795C94.8762 174.268 93.9875 173.389 93.3234 172.158C92.6789 170.908 92.3566 169.229 92.3566 167.119V135.596ZM144.826 169.58V153.262C144.826 152.012 144.572 150.928 144.064 150.01C143.576 149.072 142.834 148.35 141.838 147.842C140.842 147.334 139.611 147.08 138.146 147.08C136.779 147.08 135.578 147.314 134.543 147.783C133.527 148.252 132.727 148.867 132.141 149.629C131.574 150.391 131.291 151.211 131.291 152.09H125.871C125.871 150.957 126.164 149.834 126.75 148.721C127.336 147.607 128.176 146.602 129.27 145.703C130.383 144.785 131.711 144.062 133.254 143.535C134.816 142.988 136.555 142.715 138.469 142.715C140.773 142.715 142.805 143.105 144.562 143.887C146.34 144.668 147.727 145.85 148.723 147.432C149.738 148.994 150.246 150.957 150.246 153.32V168.086C150.246 169.141 150.334 170.264 150.51 171.455C150.705 172.646 150.988 173.672 151.359 174.531V175H145.705C145.432 174.375 145.217 173.545 145.061 172.51C144.904 171.455 144.826 170.479 144.826 169.58ZM145.764 155.781L145.822 159.59H140.344C138.801 159.59 137.424 159.717 136.213 159.971C135.002 160.205 133.986 160.566 133.166 161.055C132.346 161.543 131.721 162.158 131.291 162.9C130.861 163.623 130.646 164.473 130.646 165.449C130.646 166.445 130.871 167.354 131.32 168.174C131.77 168.994 132.443 169.648 133.342 170.137C134.26 170.605 135.383 170.84 136.711 170.84C138.371 170.84 139.836 170.488 141.105 169.785C142.375 169.082 143.381 168.223 144.123 167.207C144.885 166.191 145.295 165.205 145.354 164.248L147.668 166.855C147.531 167.676 147.16 168.584 146.555 169.58C145.949 170.576 145.139 171.533 144.123 172.451C143.127 173.35 141.936 174.102 140.549 174.707C139.182 175.293 137.639 175.586 135.92 175.586C133.771 175.586 131.887 175.166 130.266 174.326C128.664 173.486 127.414 172.363 126.516 170.957C125.637 169.531 125.197 167.939 125.197 166.182C125.197 164.482 125.529 162.988 126.193 161.699C126.857 160.391 127.814 159.307 129.064 158.447C130.314 157.568 131.818 156.904 133.576 156.455C135.334 156.006 137.297 155.781 139.465 155.781H145.764ZM164.791 150.068V175H159.371V143.301H164.498L164.791 150.068ZM163.502 157.949L161.246 157.861C161.266 155.693 161.588 153.691 162.213 151.855C162.838 150 163.717 148.389 164.85 147.021C165.983 145.654 167.33 144.6 168.893 143.857C170.475 143.096 172.223 142.715 174.137 142.715C175.7 142.715 177.106 142.93 178.356 143.359C179.606 143.77 180.67 144.434 181.549 145.352C182.448 146.27 183.131 147.461 183.6 148.926C184.069 150.371 184.303 152.139 184.303 154.229V175H178.854V154.17C178.854 152.51 178.61 151.182 178.121 150.186C177.633 149.17 176.92 148.438 175.983 147.988C175.045 147.52 173.893 147.285 172.526 147.285C171.178 147.285 169.948 147.568 168.834 148.135C167.741 148.701 166.793 149.482 165.993 150.479C165.211 151.475 164.596 152.617 164.147 153.906C163.717 155.176 163.502 156.523 163.502 157.949ZM213.116 168.848V130H218.565V175H213.585L213.116 168.848ZM191.788 159.502V158.887C191.788 156.465 192.081 154.268 192.667 152.295C193.272 150.303 194.122 148.594 195.216 147.168C196.329 145.742 197.647 144.648 199.171 143.887C200.714 143.105 202.432 142.715 204.327 142.715C206.319 142.715 208.057 143.066 209.542 143.77C211.046 144.453 212.315 145.459 213.35 146.787C214.405 148.096 215.235 149.678 215.841 151.533C216.446 153.389 216.866 155.488 217.1 157.832V160.527C216.886 162.852 216.466 164.941 215.841 166.797C215.235 168.652 214.405 170.234 213.35 171.543C212.315 172.852 211.046 173.857 209.542 174.561C208.038 175.244 206.28 175.586 204.268 175.586C202.413 175.586 200.714 175.186 199.171 174.385C197.647 173.584 196.329 172.461 195.216 171.016C194.122 169.57 193.272 167.871 192.667 165.918C192.081 163.945 191.788 161.807 191.788 159.502ZM197.237 158.887V159.502C197.237 161.084 197.393 162.568 197.706 163.955C198.038 165.342 198.546 166.562 199.229 167.617C199.913 168.672 200.782 169.502 201.837 170.107C202.891 170.693 204.151 170.986 205.616 170.986C207.413 170.986 208.887 170.605 210.04 169.844C211.212 169.082 212.149 168.076 212.852 166.826C213.555 165.576 214.102 164.219 214.493 162.754V155.693C214.259 154.619 213.917 153.584 213.468 152.588C213.038 151.572 212.471 150.674 211.768 149.893C211.085 149.092 210.235 148.457 209.22 147.988C208.223 147.52 207.042 147.285 205.675 147.285C204.19 147.285 202.911 147.598 201.837 148.223C200.782 148.828 199.913 149.668 199.229 150.742C198.546 151.797 198.038 153.027 197.706 154.434C197.393 155.82 197.237 157.305 197.237 158.887ZM9.55078 212.281V239H4.13086V207.301H9.4043L9.55078 212.281ZM19.4531 207.125L19.4238 212.164C18.9746 212.066 18.5449 212.008 18.1348 211.988C17.7441 211.949 17.2949 211.93 16.7871 211.93C15.5371 211.93 14.4336 212.125 13.4766 212.516C12.5195 212.906 11.709 213.453 11.0449 214.156C10.3809 214.859 9.85352 215.699 9.46289 216.676C9.0918 217.633 8.84766 218.688 8.73047 219.84L7.20703 220.719C7.20703 218.805 7.39258 217.008 7.76367 215.328C8.1543 213.648 8.75 212.164 9.55078 210.875C10.3516 209.566 11.3672 208.551 12.5977 207.828C13.8477 207.086 15.332 206.715 17.0508 206.715C17.4414 206.715 17.8906 206.764 18.3984 206.861C18.9062 206.939 19.2578 207.027 19.4531 207.125ZM37.6313 239.586C35.4242 239.586 33.4223 239.215 31.6254 238.473C29.848 237.711 28.3148 236.646 27.0258 235.279C25.7563 233.912 24.7797 232.291 24.0961 230.416C23.4125 228.541 23.0707 226.49 23.0707 224.264V223.033C23.0707 220.455 23.4516 218.16 24.2133 216.148C24.975 214.117 26.0102 212.398 27.3188 210.992C28.6273 209.586 30.1117 208.521 31.7719 207.799C33.432 207.076 35.1508 206.715 36.9281 206.715C39.1938 206.715 41.1469 207.105 42.7875 207.887C44.4477 208.668 45.8051 209.762 46.8598 211.168C47.9145 212.555 48.6957 214.195 49.2035 216.09C49.7113 217.965 49.9652 220.016 49.9652 222.242V224.674H26.2934V220.25H44.5453V219.84C44.4672 218.434 44.1742 217.066 43.6664 215.738C43.1781 214.41 42.3969 213.316 41.3227 212.457C40.2484 211.598 38.7836 211.168 36.9281 211.168C35.6977 211.168 34.5648 211.432 33.5297 211.959C32.4945 212.467 31.6059 213.229 30.8637 214.244C30.1215 215.26 29.5453 216.5 29.1352 217.965C28.725 219.43 28.5199 221.119 28.5199 223.033V224.264C28.5199 225.768 28.725 227.184 29.1352 228.512C29.5648 229.82 30.1801 230.973 30.9809 231.969C31.8012 232.965 32.7875 233.746 33.9398 234.312C35.1117 234.879 36.4398 235.162 37.9242 235.162C39.8383 235.162 41.4594 234.771 42.7875 233.99C44.1156 233.209 45.2777 232.164 46.2738 230.855L49.5551 233.463C48.8715 234.498 48.0023 235.484 46.9477 236.422C45.893 237.359 44.5941 238.121 43.0512 238.707C41.5277 239.293 39.7211 239.586 37.6313 239.586ZM62.782 194V239H57.3328V194H62.782ZM77.9719 207.301V239H72.5227V207.301H77.9719ZM72.1125 198.893C72.1125 198.014 72.3762 197.271 72.9035 196.666C73.4504 196.061 74.2512 195.758 75.3059 195.758C76.341 195.758 77.132 196.061 77.6789 196.666C78.2453 197.271 78.5285 198.014 78.5285 198.893C78.5285 199.732 78.2453 200.455 77.6789 201.061C77.132 201.646 76.341 201.939 75.3059 201.939C74.2512 201.939 73.4504 201.646 72.9035 201.061C72.3762 200.455 72.1125 199.732 72.1125 198.893ZM105.964 233.58V217.262C105.964 216.012 105.711 214.928 105.203 214.01C104.714 213.072 103.972 212.35 102.976 211.842C101.98 211.334 100.75 211.08 99.2848 211.08C97.9176 211.08 96.7164 211.314 95.6813 211.783C94.6656 212.252 93.8648 212.867 93.2789 213.629C92.7125 214.391 92.4293 215.211 92.4293 216.09H87.0094C87.0094 214.957 87.3023 213.834 87.8883 212.721C88.4742 211.607 89.3141 210.602 90.4078 209.703C91.5211 208.785 92.8492 208.062 94.3922 207.535C95.9547 206.988 97.693 206.715 99.607 206.715C101.912 206.715 103.943 207.105 105.701 207.887C107.478 208.668 108.865 209.85 109.861 211.432C110.877 212.994 111.384 214.957 111.384 217.32V232.086C111.384 233.141 111.472 234.264 111.648 235.455C111.843 236.646 112.127 237.672 112.498 238.531V239H106.843C106.57 238.375 106.355 237.545 106.199 236.51C106.043 235.455 105.964 234.479 105.964 233.58ZM106.902 219.781L106.961 223.59H101.482C99.9391 223.59 98.5621 223.717 97.3512 223.971C96.1402 224.205 95.1246 224.566 94.3043 225.055C93.484 225.543 92.859 226.158 92.4293 226.9C91.9996 227.623 91.7848 228.473 91.7848 229.449C91.7848 230.445 92.0094 231.354 92.4586 232.174C92.9078 232.994 93.5816 233.648 94.4801 234.137C95.398 234.605 96.5211 234.84 97.8492 234.84C99.5094 234.84 100.974 234.488 102.244 233.785C103.513 233.082 104.519 232.223 105.261 231.207C106.023 230.191 106.433 229.205 106.492 228.248L108.806 230.855C108.67 231.676 108.298 232.584 107.693 233.58C107.088 234.576 106.277 235.533 105.261 236.451C104.265 237.35 103.074 238.102 101.687 238.707C100.32 239.293 98.777 239.586 97.0582 239.586C94.9098 239.586 93.025 239.166 91.4039 238.326C89.8023 237.486 88.5523 236.363 87.6539 234.957C86.775 233.531 86.3355 231.939 86.3355 230.182C86.3355 228.482 86.6676 226.988 87.3316 225.699C87.9957 224.391 88.9527 223.307 90.2027 222.447C91.4527 221.568 92.9566 220.904 94.7145 220.455C96.4723 220.006 98.4352 219.781 100.603 219.781H106.902ZM120.48 194H125.93V232.848L125.461 239H120.48V194ZM147.346 222.887V223.502C147.346 225.807 147.072 227.945 146.525 229.918C145.979 231.871 145.178 233.57 144.123 235.016C143.068 236.461 141.779 237.584 140.256 238.385C138.732 239.186 136.984 239.586 135.012 239.586C133 239.586 131.232 239.244 129.709 238.561C128.205 237.857 126.936 236.852 125.9 235.543C124.865 234.234 124.035 232.652 123.41 230.797C122.805 228.941 122.385 226.852 122.15 224.527V221.832C122.385 219.488 122.805 217.389 123.41 215.533C124.035 213.678 124.865 212.096 125.9 210.787C126.936 209.459 128.205 208.453 129.709 207.77C131.213 207.066 132.961 206.715 134.953 206.715C136.945 206.715 138.713 207.105 140.256 207.887C141.799 208.648 143.088 209.742 144.123 211.168C145.178 212.594 145.979 214.303 146.525 216.295C147.072 218.268 147.346 220.465 147.346 222.887ZM141.896 223.502V222.887C141.896 221.305 141.75 219.82 141.457 218.434C141.164 217.027 140.695 215.797 140.051 214.742C139.406 213.668 138.557 212.828 137.502 212.223C136.447 211.598 135.148 211.285 133.605 211.285C132.238 211.285 131.047 211.52 130.031 211.988C129.035 212.457 128.186 213.092 127.482 213.893C126.779 214.674 126.203 215.572 125.754 216.588C125.324 217.584 125.002 218.619 124.787 219.693V226.754C125.1 228.121 125.607 229.439 126.311 230.709C127.033 231.959 127.99 232.984 129.182 233.785C130.393 234.586 131.887 234.986 133.664 234.986C135.129 234.986 136.379 234.693 137.414 234.107C138.469 233.502 139.318 232.672 139.963 231.617C140.627 230.562 141.115 229.342 141.428 227.955C141.74 226.568 141.896 225.084 141.896 223.502ZM160.69 194V239H155.241V194H160.69ZM183.145 239.586C180.938 239.586 178.936 239.215 177.139 238.473C175.362 237.711 173.829 236.646 172.54 235.279C171.27 233.912 170.294 232.291 169.61 230.416C168.927 228.541 168.585 226.49 168.585 224.264V223.033C168.585 220.455 168.966 218.16 169.727 216.148C170.489 214.117 171.524 212.398 172.833 210.992C174.141 209.586 175.626 208.521 177.286 207.799C178.946 207.076 180.665 206.715 182.442 206.715C184.708 206.715 186.661 207.105 188.302 207.887C189.962 208.668 191.319 209.762 192.374 211.168C193.429 212.555 194.21 214.195 194.718 216.09C195.225 217.965 195.479 220.016 195.479 222.242V224.674H171.807V220.25H190.059V219.84C189.981 218.434 189.688 217.066 189.18 215.738C188.692 214.41 187.911 213.316 186.837 212.457C185.762 211.598 184.298 211.168 182.442 211.168C181.212 211.168 180.079 211.432 179.044 211.959C178.009 212.467 177.12 213.229 176.378 214.244C175.636 215.26 175.059 216.5 174.649 217.965C174.239 219.43 174.034 221.119 174.034 223.033V224.264C174.034 225.768 174.239 227.184 174.649 228.512C175.079 229.82 175.694 230.973 176.495 231.969C177.315 232.965 178.302 233.746 179.454 234.312C180.626 234.879 181.954 235.162 183.438 235.162C185.352 235.162 186.973 234.771 188.302 233.99C189.63 233.209 190.792 232.164 191.788 230.855L195.069 233.463C194.386 234.498 193.516 235.484 192.462 236.422C191.407 237.359 190.108 238.121 188.565 238.707C187.042 239.293 185.235 239.586 183.145 239.586ZM202.495 236.129C202.495 235.211 202.779 234.439 203.345 233.814C203.931 233.17 204.771 232.848 205.864 232.848C206.958 232.848 207.788 233.17 208.355 233.814C208.941 234.439 209.234 235.211 209.234 236.129C209.234 237.027 208.941 237.789 208.355 238.414C207.788 239.039 206.958 239.352 205.864 239.352C204.771 239.352 203.931 239.039 203.345 238.414C202.779 237.789 202.495 237.027 202.495 236.129Z" fill="#0B2330"/>
</svg>
